<mxfile host="app.diagrams.net" modified="2020-11-22T09:06:34.442Z" agent="5.0 (Windows NT 10.0; Win64; x64) AppleWebKit/537.36 (KHTML, like Gecko) Chrome/87.0.4280.66 Safari/537.36" etag="oXM2t7pIWS36g0cy1Dpi" version="13.10.0" type="github">
  <diagram id="2405wJ3sSz2FnLK-L2Kb" name="Page-1">
    <mxGraphModel dx="1019" dy="519" grid="1" gridSize="10" guides="1" tooltips="1" connect="1" arrows="1" fold="1" page="1" pageScale="1" pageWidth="850" pageHeight="1100" math="0" shadow="0">
      <root>
        <mxCell id="0" />
        <mxCell id="1" parent="0" />
        <mxCell id="DbfD-DtE0sevARXXJMPS-3" value="Thông tin lý lịch" style="edgeStyle=orthogonalEdgeStyle;rounded=0;orthogonalLoop=1;jettySize=auto;html=1;exitX=1;exitY=0.5;exitDx=0;exitDy=0;entryX=0;entryY=0.5;entryDx=0;entryDy=0;" parent="1" source="DbfD-DtE0sevARXXJMPS-1" target="DbfD-DtE0sevARXXJMPS-2" edge="1">
          <mxGeometry relative="1" as="geometry" />
        </mxCell>
        <mxCell id="DbfD-DtE0sevARXXJMPS-25" value="Kết quả tái khám" style="edgeStyle=orthogonalEdgeStyle;rounded=0;orthogonalLoop=1;jettySize=auto;html=1;entryX=0.647;entryY=-0.011;entryDx=0;entryDy=0;entryPerimeter=0;" parent="1" source="DbfD-DtE0sevARXXJMPS-1" target="DbfD-DtE0sevARXXJMPS-15" edge="1">
          <mxGeometry x="-0.0359" y="13" relative="1" as="geometry">
            <mxPoint as="offset" />
            <mxPoint x="145" y="200" as="targetPoint" />
            <Array as="points">
              <mxPoint x="147" y="170" />
              <mxPoint x="147" y="170" />
            </Array>
          </mxGeometry>
        </mxCell>
        <mxCell id="DbfD-DtE0sevARXXJMPS-1" value="Bệnh nhân" style="rounded=0;whiteSpace=wrap;html=1;" parent="1" vertex="1">
          <mxGeometry x="70" y="75" width="150" height="50" as="geometry" />
        </mxCell>
        <mxCell id="DbfD-DtE0sevARXXJMPS-5" style="edgeStyle=orthogonalEdgeStyle;rounded=0;orthogonalLoop=1;jettySize=auto;html=1;entryX=0.5;entryY=0;entryDx=0;entryDy=0;" parent="1" source="DbfD-DtE0sevARXXJMPS-2" target="DbfD-DtE0sevARXXJMPS-4" edge="1">
          <mxGeometry relative="1" as="geometry">
            <mxPoint x="720" y="120" as="targetPoint" />
            <Array as="points">
              <mxPoint x="415" y="230" />
              <mxPoint x="735" y="230" />
            </Array>
          </mxGeometry>
        </mxCell>
        <mxCell id="DbfD-DtE0sevARXXJMPS-7" style="edgeStyle=orthogonalEdgeStyle;rounded=0;orthogonalLoop=1;jettySize=auto;html=1;" parent="1" source="DbfD-DtE0sevARXXJMPS-2" target="DbfD-DtE0sevARXXJMPS-6" edge="1">
          <mxGeometry relative="1" as="geometry">
            <Array as="points">
              <mxPoint x="390" y="200" />
              <mxPoint x="390" y="200" />
            </Array>
          </mxGeometry>
        </mxCell>
        <mxCell id="DbfD-DtE0sevARXXJMPS-2" value="3.1 Ghi nhận thông tin lý lịch bệnh nhân" style="ellipse;whiteSpace=wrap;html=1;" parent="1" vertex="1">
          <mxGeometry x="340" y="60" width="150" height="80" as="geometry" />
        </mxCell>
        <mxCell id="DbfD-DtE0sevARXXJMPS-8" style="edgeStyle=orthogonalEdgeStyle;rounded=0;orthogonalLoop=1;jettySize=auto;html=1;" parent="1" source="DbfD-DtE0sevARXXJMPS-4" target="DbfD-DtE0sevARXXJMPS-6" edge="1">
          <mxGeometry relative="1" as="geometry">
            <Array as="points">
              <mxPoint x="710" y="260" />
            </Array>
          </mxGeometry>
        </mxCell>
        <mxCell id="DbfD-DtE0sevARXXJMPS-13" style="edgeStyle=orthogonalEdgeStyle;rounded=0;orthogonalLoop=1;jettySize=auto;html=1;entryX=1.002;entryY=0.378;entryDx=0;entryDy=0;entryPerimeter=0;" parent="1" source="DbfD-DtE0sevARXXJMPS-4" target="DbfD-DtE0sevARXXJMPS-10" edge="1">
          <mxGeometry relative="1" as="geometry">
            <Array as="points">
              <mxPoint x="730" y="450" />
            </Array>
            <mxPoint x="540" y="380" as="targetPoint" />
          </mxGeometry>
        </mxCell>
        <mxCell id="DbfD-DtE0sevARXXJMPS-4" value="Hồ sơ bệnh nhân" style="shape=partialRectangle;whiteSpace=wrap;html=1;left=0;right=0;fillColor=none;" parent="1" vertex="1">
          <mxGeometry x="660" y="280" width="150" height="40" as="geometry" />
        </mxCell>
        <mxCell id="DbfD-DtE0sevARXXJMPS-11" style="edgeStyle=orthogonalEdgeStyle;rounded=0;orthogonalLoop=1;jettySize=auto;html=1;entryX=0.5;entryY=0;entryDx=0;entryDy=0;" parent="1" source="DbfD-DtE0sevARXXJMPS-6" target="DbfD-DtE0sevARXXJMPS-10" edge="1">
          <mxGeometry relative="1" as="geometry" />
        </mxCell>
        <mxCell id="DbfD-DtE0sevARXXJMPS-12" style="edgeStyle=orthogonalEdgeStyle;rounded=0;orthogonalLoop=1;jettySize=auto;html=1;exitX=1;exitY=1;exitDx=0;exitDy=0;entryX=0.25;entryY=1;entryDx=0;entryDy=0;" parent="1" source="DbfD-DtE0sevARXXJMPS-6" target="DbfD-DtE0sevARXXJMPS-4" edge="1">
          <mxGeometry relative="1" as="geometry">
            <Array as="points">
              <mxPoint x="440" y="308" />
              <mxPoint x="440" y="340" />
              <mxPoint x="698" y="340" />
            </Array>
          </mxGeometry>
        </mxCell>
        <mxCell id="DbfD-DtE0sevARXXJMPS-6" value="3.2 Cập nhật hồ sơ bệnh lý bệnh nhân" style="ellipse;whiteSpace=wrap;html=1;" parent="1" vertex="1">
          <mxGeometry x="340" y="240" width="150" height="80" as="geometry" />
        </mxCell>
        <mxCell id="DbfD-DtE0sevARXXJMPS-14" style="edgeStyle=orthogonalEdgeStyle;rounded=0;orthogonalLoop=1;jettySize=auto;html=1;" parent="1" source="DbfD-DtE0sevARXXJMPS-10" target="DbfD-DtE0sevARXXJMPS-4" edge="1">
          <mxGeometry relative="1" as="geometry">
            <Array as="points">
              <mxPoint x="750" y="470" />
            </Array>
          </mxGeometry>
        </mxCell>
        <mxCell id="lIgYYnVDVKHy6cjHVC_9-3" style="edgeStyle=orthogonalEdgeStyle;rounded=0;orthogonalLoop=1;jettySize=auto;html=1;" edge="1" parent="1" source="DbfD-DtE0sevARXXJMPS-10" target="DbfD-DtE0sevARXXJMPS-17">
          <mxGeometry relative="1" as="geometry" />
        </mxCell>
        <mxCell id="DbfD-DtE0sevARXXJMPS-10" value="3.3 Cập nhật ngày xuất viện" style="ellipse;whiteSpace=wrap;html=1;" parent="1" vertex="1">
          <mxGeometry x="340" y="420" width="150" height="80" as="geometry" />
        </mxCell>
        <mxCell id="DbfD-DtE0sevARXXJMPS-24" style="edgeStyle=orthogonalEdgeStyle;rounded=0;orthogonalLoop=1;jettySize=auto;html=1;entryX=0.25;entryY=1;entryDx=0;entryDy=0;" parent="1" source="DbfD-DtE0sevARXXJMPS-15" target="DbfD-DtE0sevARXXJMPS-1" edge="1">
          <mxGeometry relative="1" as="geometry">
            <Array as="points">
              <mxPoint x="108" y="220" />
            </Array>
            <mxPoint x="95" y="170" as="targetPoint" />
          </mxGeometry>
        </mxCell>
        <mxCell id="DbfD-DtE0sevARXXJMPS-26" value="Kết quả tái khám" style="edgeStyle=orthogonalEdgeStyle;rounded=0;orthogonalLoop=1;jettySize=auto;html=1;" parent="1" source="DbfD-DtE0sevARXXJMPS-15" target="DbfD-DtE0sevARXXJMPS-6" edge="1">
          <mxGeometry relative="1" as="geometry" />
        </mxCell>
        <mxCell id="DbfD-DtE0sevARXXJMPS-15" value="3.4 Yêu cầu tái khám" style="ellipse;whiteSpace=wrap;html=1;" parent="1" vertex="1">
          <mxGeometry x="50" y="240" width="150" height="80" as="geometry" />
        </mxCell>
        <mxCell id="DbfD-DtE0sevARXXJMPS-22" style="edgeStyle=orthogonalEdgeStyle;rounded=0;orthogonalLoop=1;jettySize=auto;html=1;entryX=0;entryY=0.5;entryDx=0;entryDy=0;" parent="1" source="DbfD-DtE0sevARXXJMPS-17" target="DbfD-DtE0sevARXXJMPS-21" edge="1">
          <mxGeometry relative="1" as="geometry">
            <Array as="points">
              <mxPoint x="160" y="535" />
            </Array>
            <mxPoint x="120" y="580" as="targetPoint" />
          </mxGeometry>
        </mxCell>
        <mxCell id="DbfD-DtE0sevARXXJMPS-30" value="Hóa đơn điều trị" style="edgeLabel;html=1;align=center;verticalAlign=middle;resizable=0;points=[];" parent="DbfD-DtE0sevARXXJMPS-22" vertex="1" connectable="0">
          <mxGeometry x="0.0364" y="2" relative="1" as="geometry">
            <mxPoint x="14.62" y="2" as="offset" />
          </mxGeometry>
        </mxCell>
        <mxCell id="lIgYYnVDVKHy6cjHVC_9-6" style="edgeStyle=orthogonalEdgeStyle;rounded=0;orthogonalLoop=1;jettySize=auto;html=1;" edge="1" parent="1" source="DbfD-DtE0sevARXXJMPS-17">
          <mxGeometry relative="1" as="geometry">
            <mxPoint x="125" y="590" as="targetPoint" />
          </mxGeometry>
        </mxCell>
        <mxCell id="DbfD-DtE0sevARXXJMPS-17" value="3.5 In hóa đơn điều trị" style="ellipse;whiteSpace=wrap;html=1;" parent="1" vertex="1">
          <mxGeometry x="50" y="420" width="150" height="80" as="geometry" />
        </mxCell>
        <mxCell id="lIgYYnVDVKHy6cjHVC_9-9" value="Hóa đơn thanh toán" style="edgeStyle=orthogonalEdgeStyle;rounded=0;orthogonalLoop=1;jettySize=auto;html=1;entryX=1;entryY=0;entryDx=0;entryDy=0;" edge="1" parent="1" source="DbfD-DtE0sevARXXJMPS-21" target="lIgYYnVDVKHy6cjHVC_9-7">
          <mxGeometry relative="1" as="geometry">
            <Array as="points">
              <mxPoint x="328" y="602" />
            </Array>
          </mxGeometry>
        </mxCell>
        <mxCell id="DbfD-DtE0sevARXXJMPS-21" value="Bệnh nhân" style="rounded=0;whiteSpace=wrap;html=1;" parent="1" vertex="1">
          <mxGeometry x="270" y="510" width="115" height="50" as="geometry" />
        </mxCell>
        <mxCell id="lIgYYnVDVKHy6cjHVC_9-2" style="edgeStyle=orthogonalEdgeStyle;rounded=0;orthogonalLoop=1;jettySize=auto;html=1;entryX=1;entryY=0.5;entryDx=0;entryDy=0;" edge="1" parent="1" source="lIgYYnVDVKHy6cjHVC_9-1" target="DbfD-DtE0sevARXXJMPS-2">
          <mxGeometry relative="1" as="geometry" />
        </mxCell>
        <mxCell id="lIgYYnVDVKHy6cjHVC_9-1" value="Khoa / Trung tâm điều trị" style="rounded=0;whiteSpace=wrap;html=1;" vertex="1" parent="1">
          <mxGeometry x="650" y="75" width="150" height="50" as="geometry" />
        </mxCell>
        <mxCell id="lIgYYnVDVKHy6cjHVC_9-5" style="edgeStyle=orthogonalEdgeStyle;rounded=0;orthogonalLoop=1;jettySize=auto;html=1;entryX=0.5;entryY=0;entryDx=0;entryDy=0;" edge="1" parent="1" source="lIgYYnVDVKHy6cjHVC_9-4" target="DbfD-DtE0sevARXXJMPS-17">
          <mxGeometry relative="1" as="geometry" />
        </mxCell>
        <mxCell id="lIgYYnVDVKHy6cjHVC_9-4" value="Hóa đơn" style="shape=partialRectangle;whiteSpace=wrap;html=1;left=0;right=0;fillColor=none;" vertex="1" parent="1">
          <mxGeometry x="50" y="350" width="150" height="40" as="geometry" />
        </mxCell>
        <mxCell id="lIgYYnVDVKHy6cjHVC_9-8" value="Giấy xuất viện" style="edgeStyle=orthogonalEdgeStyle;rounded=0;orthogonalLoop=1;jettySize=auto;html=1;entryX=0.75;entryY=1;entryDx=0;entryDy=0;" edge="1" parent="1" source="lIgYYnVDVKHy6cjHVC_9-7" target="DbfD-DtE0sevARXXJMPS-21">
          <mxGeometry relative="1" as="geometry" />
        </mxCell>
        <mxCell id="lIgYYnVDVKHy6cjHVC_9-7" value="3.6 In giấy xuất viện" style="ellipse;whiteSpace=wrap;html=1;" vertex="1" parent="1">
          <mxGeometry x="50" y="590" width="150" height="80" as="geometry" />
        </mxCell>
      </root>
    </mxGraphModel>
  </diagram>
</mxfile>
